<svg id="tekst-mask" xmlns="http://www.w3.org/2000/svg" viewBox="0 0 1920 538.58"><title>tekst-mask</title><path d="M92.12,656a7,7,0,0,1,4.52.32c13.82,6.28,12.37,5.49,21.33-6.39a10.56,10.56,0,0,0,1.88-2.58c1-3,1.4-6.3-1.56-8.08-4.9-2.94-9.41-6-12.83-10.79a5.92,5.92,0,0,0-8.1-1.42c-2.56,1.65-3,4.38-2.13,7.23.45,1.53,1,3,1.84,5.69-7.67,1.25-11.08,6.1-13.65,11.85C85.38,655.71,88,657.26,92.12,656Z" transform="translate(0 -541.42)"/><path d="M127.24,588.59c2.27-4-.37-6.42-3.7-9-5.24,4.78-5.86,6.39-3.63,8.66C121.65,590.07,126.19,590.46,127.24,588.59Z" transform="translate(0 -541.42)"/><path d="M358.9,581.93c1.13.57,3.41-1.12,6.51-2.3-2.16-2.42-3.16-4.37-4.74-5.12-2.31-1.1-5.33-.46-5.51,2.35C355,578.54,357.15,581.05,358.9,581.93Z" transform="translate(0 -541.42)"/><path d="M170.93,663.69c-.44-3.32-1.52-5.42-4.69-4.61-.82.21-2,2.22-1.72,2.93C165.59,664.91,167.9,665,170.93,663.69Z" transform="translate(0 -541.42)"/><path d="M192.93,623.83c1.56.15,3.2-.47,4.81-.79-.52-1.32-.7-3.26-1.66-3.78s-2.69.38-4.77.8C192,621.81,192.39,623.77,192.93,623.83Z" transform="translate(0 -541.42)"/><path d="M402,589c.7.23,1.69-.44,3.4-1-1.29-1.2-1.9-2.25-2.61-2.32s-1.62.77-2.43,1.22C400.92,587.65,401.33,588.78,402,589Z" transform="translate(0 -541.42)"/><path d="M216.21,570.38l-4.11-1.61c-.26.66-.52,1.32-.77,2,1.34.53,2.68,1.1,4.07,1.5A15.87,15.87,0,0,0,216.21,570.38Z" transform="translate(0 -541.42)"/><path d="M365,623.57a8.54,8.54,0,0,0,2.65-.58c-.23-.65-.34-1.75-.73-1.86a10.05,10.05,0,0,0-3.12.12C364.34,622.41,364.61,623.53,365,623.57Z" transform="translate(0 -541.42)"/><path d="M1916.2,674l-3,.81c-.11-1-.22-2-.36-3.41l-7,2.86-2.88-5.94c-5,5.13-11.4,4.81-17.28,6.21-4.12,1-8.51,2.45-12.51,1.86-4.6-.67-6.52.84-8.09,4.58a28.93,28.93,0,0,1-3.11,4.64c-1-.3-2.36-1.16-3-.79-6,3.59-11.68,1.8-17.39-.61l-3.44-5.73-5.06-5c5.12-1.79,10.11-3.61,14-7.82,5.3-5.76,4.68-11.47-2-15.33-2-1.15-3.61-2.87-5.55-4.09s-4.1-2.89-6.3-3.14c-8.25-.92-15.42-7-24.27-5-.6.14-1.46-.57-2.12-1-6.07-4.06-12.53-1.45-18.84-1-.62,0-1.13,1.62-1.69,2.48-1.54-.49-3.47-.55-4.55-1.54-5.32-4.82-10.77-4.33-16.17-.6-4.75,3.28-9.15,2.26-13.66-.23,1.2-4.52-4.24-5.58-4.81-9.18l-12.48.87-3.71-6.07,7.28,1.81.91-1.33c-1.66-2-3.33-4-5.62-6.83-1.2,2.94-1.89,4.64-2.59,6.34-2.09-.36-5.23,0-6.05-1.24-2-2.95-2.92-6.63-4.49-10.57-2.61-.71-5.21-3.81-9.18-1.18-6.81,4.5-13.4,9.41-22.35,9.42a9.7,9.7,0,0,0-7.39,3.93c-2.55,3.26-7.51,4.57-11.29,7a27,27,0,0,0-3.9,3.75l-3.48,6c-5.64,3-12.35,4.4-15.53,10.88-.21,0-.47-.15-.62-.08a8.41,8.41,0,0,0-1,.71l-3,7.62c-2.11,6.8-5.18,12.71-13.15,14q-6.45-2-12.92-3.87c-3.67-.13-7.34-.36-11-.35-2,0-3.9.45-5.86.65-1.28.13-2.8-.14-4,.17,3.17-4.29,10.16-7.93,9.28-16.44L1596.5,647c4.79-3.81,1-8.94,3.08-13.31.53-1.12-2.61-4.27-4.44-6.12-1-1-2.82-1.32-4.21-1.92.12-2.17.21-3.9.3-5.54-2.67,0-5.25.09-7.81.15l0-.2c-2.17-3.65-4-7.57-6.6-10.88s-6-2.86-8.54.71a15,15,0,0,0-2.27,10.51c-3.12.56-4.28,2.44-5.72,7.62-2.06.17-4.12.31-6.18.5-6.43.58-13.33-2.47-19.19,2.49l-8.75.25-.69-12.42,2.66-2.78c-3.11-3.93-3.43-4.81-4.1-11-.77-7.09-3.37-9.08-9.86-7.15-2.48-4.16-5.47-7.32-11.07-4.09-1.11.64-3.42-.41-5-1.09-2-.85-9.37-1.53-9.86-.3-2.08,5.3-6.19,4.14-10.26,3.72-4.93-.51-10.22-.56-13,4.18-3.89,6.49-8.67,11.12-15.7,12.49a10.5,10.5,0,0,0-.36-2.91c-.15-.55-.32-1.07-.51-1.58l7.28-1.94c-.36-2.08-.65-3.71-1-5.44-3.19.91-6,1.82-8,4.22-2.4-3.52-6.08-5.25-10-4.42l-.43.11c-5,1.4-9.31,8.92-8.16,14.2-6.12-.72-12.23-1.55-17.31,3.92l-15.74,9.9h0l-5.14,5.18L1376.1,643l-17.28-4.38c-4,.52-8.09.65-12,1.63-9.45,2.4-18.86,5.08-26.33,11.94-7,3.73-12.38,1.32-16.82-5.82-2.29,2-4.15,3.44-5.69,5.13-2.17,2.38-4.11,5-6.14,7.48a71.88,71.88,0,0,1-9.32-1.12c-3.15-.77-6.11-1.63-9.71.88l9.13,4c-6.38,4.47-13,7.84-21.09,4.72-3-1.09-4.92-1.75-6.45-1.76-.9-5.15-2-10.26-2.86-15.43-.6-3.76-2.68-5.55-6.15-6.65-5.38-1.73-9.47,1.13-13.83,3.24-2.33.25-4.74,1-7,.64-6.11-1-12.11-2.56-18.22-3.57-3.8-.62-7.7-.63-11.55-.92-5.26,1.15-10.53,2.57-15.86.65s-10.73,5.36-15.37-.79c-7.87,7.18-16.87,2.78-25,3.54-4.15.4-8.68-2.25-12.92-3.82-8.36-3.1-16.41-1.87-24.37,1.36-2.64.45-5.29.88-7.93,1.31l-3.72-1c-6.74-4-13.76-6-21.46-2.9-3.28,1.7-6.21,3.83-10.29,1-2.48-1.7-4.88.41-5.07,3.17-.25,3.56-2,6-4.43,8.17-4.89,4.07-9.63,8.35-14.76,12.13-2,1.46-4.76,2.11-7.29,2.54-5.5,1-11.11,1.37-16.61,2.35-6.84,1.2-8.72.25-11.42-6.58-.59-1.5-1.25-3-1.89-4.45.2-5.51-2.29-9.6-6.6-12.81-3-2.21-5.82-4.56-8.73-6.86-3.29-5.06-9.06-5.27-14-6.88-1.39-.46-3.7.54-5.08,1.56-5.54,4.16-11.13,8.4-12.56,15.87-2.55,3.65-7.34,6.34-5.13,12-.5.61-1,1.21-1.48,1.81l-.27,0c-.76-4.78-2.37-8.82-8.77-7.89-1.26.19-3-1.64-4.24-2.86-1.51-1.52-8.14-4.88-9-3.92-3.9,4.16-7.28,1.56-10.91-.33-4.39-2.29-9.29-4.3-13.68-.94-7.1,5.43-14.41,8-23.13,4.69-.67-.25-1.5-.06-3.19-.1l4.17,6.71c-6.3.07-6.4-4.49-8.08-7.45a50.28,50.28,0,0,1-6.24-2.11c-3.93-1.9-7.7-4.46-11.81-5.41.79-.76,1.72-1.82,3-2.95-3-1.05-4.75-2.27-6-1.91s-2.12,2.29-3.16,3.54a16.88,16.88,0,0,1,1.47,1.06,13.69,13.69,0,0,0-4.18,1.26l-18.29,3.38h0l-6.69,2.91-16.06,3.14-14.44-10.45c-3.91-1-7.76-2.39-11.73-2.91-9.67-1.27-19.4-2.25-28.88,1.36-7.91.87-12-3.35-13.48-11.62-2.88,1-5.12,1.66-7.18,2.66-2.9,1.41-5.66,3.11-8.48,4.69a73.49,73.49,0,0,1-8.24-4.49c-2.64-1.88-5.07-3.77-9.34-2.77,2.57,2.62,4.78,4.87,7,7.13-7.58,1.79-15,2.48-21.33-3.41s-7.1-5.76-14.27-.28c-6.46,1-7.6,10.37-15.19,9.54-.19,5.71-4.91,3.16-7.57,3.84-3.31.85-6.94.38-10.34,1-2.6.47-5,1.75-7.87,2.77l-3.3-3.65-6.82,7c-1.72-.56-3.45-1.12-5.17-1.7-7-2.36-14.08-5-21.66-2.21l-3.17,1.22q-4.47-2.34-9.13-4.39a64.65,64.65,0,0,0-6.95-2.25c-7.57-1.53-15.29,2.63-19.09,9.15-22.63-1.63-41.7,5.21-56,23.56-1.07.79-2.68,1.36-3.11,2.41a50.38,50.38,0,0,1-3.31,6.4c-4.09-3.37-9.2-5.18-13.23-8.52h0l-11.7-8.58c-7-4-14.06-7.75-22.2-9.37-5.48-1.08-10.65-3.71-16-5.64-4.53-7-10.37-2.76-16.54-1.6-.3-3.39-.58-6.6-.85-9.7l-5.31,3.18h0a.13.13,0,0,0,0-.06h0c-.44-3.84.06-7.1-1.27-9.19-2.56-4-5.62-7.92-11.4-8-1.49,0-2.95-1.86-4.44-2.88l-4.17,5.46c.91-4.39,1.55-7.41,1.92-9.21l-2.29.18h0l-2.18.16-1.11.09-5.94.45c-1.48,2.89-3.79,6.07-3.58,9.29a4.88,4.88,0,0,0,.13.84c.34,1.64,1.42,3.29,3.66,4.91L371,642l-1,2.1c.88,1,1.77,2,2.63,3l.68.76a5.6,5.6,0,0,0,.4.45h0l.78.91a48.68,48.68,0,0,1,3.7,4.79,6.32,6.32,0,0,1,.35,4.07,1.7,1.7,0,0,1-.57,1.1l-.15.09c-3.35,2.11-1,5.32-2,7.77l-3.83-1c-.86,4.47.5,7.13,4.53,9.52-.27-3.36-.48-5.91-.69-8.45,1.54,2.64,3.71,3.46,6.83,3.29,1.36-.08,3.56,1.51,4.11,2.86,1,2.45-.89,3.93-3.18,4.76-1.85.66-3.67,1.43-6.62,2.59l7,5.33-3.34,2.06-1.69,1c-.25-.14-.47-.3-.71-.44a14.93,14.93,0,0,0-.77-1.4c-1.25-2-2.51-3.91-3.77-5.87,0-.22,0-.43,0-.65l-.32.12-2.88-4.5a57.73,57.73,0,0,0-2.66-8.73l-.09-.2-1.61,2.12-.41-.63c-1-1.56-2.37-3-3-4.69a14.81,14.81,0,0,0-5.55-7.48c-.07-3-.24-6-.38-9.07l-.06-1.37c-1-2.68-1.66-5.54-3-8-3.19-5.66-5.19-6.38-11.05-4.84-4.41,1.16-5.81,2.31-6.22,6.4-.15,0-.28-.07-.44-.09-3.1-.32-4.94,1.53-6,4.4a19.83,19.83,0,0,1-2.32,3.55l-11-3c-.85-4.47-2.12-8.55-4.85-11-3.05-2.71-7.39-4-11.27-5.69-.79-.35-2.13.18-3.07.61-3.25,1.52-3.8,3.95-2.5,8.23,1.57,5.2,5,10.05,3.2,15.94l-7.46-2.82c-1.12-1.12-2.63-2.07-3.49-3.3a3.68,3.68,0,0,1-.42-.71c-4.21-9.24-13.33-11.79-21.49-14.26-5.18-1.57-11.61,1-18.63,1.79-.94-1.53-2.44-3.93-3.62-5.83-2.82,1.07-5.54,2.94-8.25,2.92-4.51,0-3.85,4.35-5.81,6.33l-3-2.77a17.33,17.33,0,0,1-1.94,3.56c-5.94,6.44-8,14.57-10.1,22.69-.78,3.09-2.58,4.21-5.61,4.9-1.81.41-3.59.88-5.38,1.39h0c-1.81.5-3.6,1-5.4,1.59-2.12.66-4.24,1.32-6.37,1.94l2.21.21-2.21-.2-11.55,2.52c-6.09-2.13-12.05-4.86-18.3-6.27-14.95-3.35-30.1-2.75-45.24-1.17l-14.47,1.45L92,664.61c-5.89-.63-11.4,0-15.62,4.8-5.73,4.24-12.29,3.3-18.75,3l-23.09-7.27c-4.7-8.19-12.59-7.65-20.4-7.53-3.36.05-6.73-.39-10.1-.6-1.17-2.29-2.55-2.34-4-1.8V1080H1920V670.82C1917.21,669.42,1916.76,670.25,1916.2,674Zm-467.69-54.92h0l-1.08-.8h0Zm-1.6-.17c-.18.21-.37.4-.57.6C1446.54,619.28,1446.73,619.09,1446.91,618.88Zm-.79.82a9.72,9.72,0,0,0,1.37-.3,7.54,7.54,0,0,1-1.37.3Z" transform="translate(0 -541.42)"/><path d="M994.51,571.34c.66,6.13,7.15,11.31,13.21,10.56s11-6.23,10.12-11.4c-1-6.08-7.66-11-13.64-10.12S993.94,566.2,994.51,571.34Z" transform="translate(0 -541.42)"/><path d="M1070.47,630.5a10.55,10.55,0,0,0,8.26-7.82c1.46-7.88-3.67-15.63-12.48-18.34-1.9,2.58-3.44,4.76-5,6.88-3.35,4.44-2.76,9.15-.66,13.75A10,10,0,0,0,1070.47,630.5Z" transform="translate(0 -541.42)"/><path d="M932.5,596c5.3-1,9.29-7.29,8.31-13.11-1-6-6.27-9.65-12.55-8.73s-10.22,5.59-9.47,11C919.76,592.39,926,597.27,932.5,596Z" transform="translate(0 -541.42)"/><path d="M987.14,560.91c4.51-.7,8.46-6.12,7.8-10.74-.81-5.67-5.47-9.42-10.76-8.65-4.3.61-9,6.4-8.5,10.38C976.42,557.48,981.82,561.73,987.14,560.91Z" transform="translate(0 -541.42)"/><path d="M1015.19,613.66c-4.83.44-8.09,4.11-7.73,8.71.34,4.34,4.71,8.1,8.87,7.65,4.39-.48,8.39-5.52,7.78-9.79C1023.58,616.45,1019.28,613.29,1015.19,613.66Z" transform="translate(0 -541.42)"/><path d="M976.89,618.85a7,7,0,0,0,6.29-7.87c-.67-4.46-4.1-7-8.66-6.38-4.39.58-6.38,3-5.79,7C969.45,616.51,972.58,619.26,976.89,618.85Z" transform="translate(0 -541.42)"/><path d="M1319.52,599.05a27.05,27.05,0,0,0-2.37-4.2c-.39-.45-1.42-.33-2.48-.52C1314.06,597.38,1314.72,599.1,1319.52,599.05Z" transform="translate(0 -541.42)"/><path d="M1166.59,602.52a5.25,5.25,0,0,0,6.62-2.91c1.09-2.16-.77-7-3.16-7.14-2.23-.13-4.54,1.18-6.08,1.64C1162.49,598.36,1163.85,601.77,1166.59,602.52Z" transform="translate(0 -541.42)"/><path d="M1093,554.16c1.75,1.49,5.06-.63,6-3.54.07-.21.13-.42.18-.62.56-2.25.12-4.27-2.38-5.4a3.56,3.56,0,0,0-3.4.24,8.48,8.48,0,0,0-3.12,4.63c.08.15.16.33.25.53C1091,551.18,1091.65,553.06,1093,554.16Z" transform="translate(0 -541.42)"/><path d="M1129.31,599.68c1.73-.19,4.26-1.76,4.66-3.2.5-1.77-.86-4.06-1.88-7.81-2.84,2.26-4.79,3.16-5.65,4.67C1125.11,595.71,1127.07,599.93,1129.31,599.68Z" transform="translate(0 -541.42)"/><path d="M886.17,645.25c-4.74-.47-8.76-.69-12.38,4.08L885,650.66C885.47,648.59,885.81,647,886.17,645.25Z" transform="translate(0 -541.42)"/><path d="M868.53,643.21c-1.42,3.1-2.55,5.56-3.67,8C870.57,647.31,870.57,647.31,868.53,643.21Z" transform="translate(0 -541.42)"/><path d="M634.91,645.16l4.19,1.5c.2-.54.39-1.09.58-1.64l-4.18-1.52C635.3,644.06,635.11,644.61,634.91,645.16Z" transform="translate(0 -541.42)"/><path d="M289,596.07c1.1,6.2,7.95,11.29,15.45,11.92.59-1.54,1.21-3.12,2-5l4,2,3.84,2.81.33-.28-.33.29c-.23,4.41-.46,8.83-.63,12.28l12.56,7.21c2.51,1,4.94,2.23,7.59.15,2.93-2.3,6.49-3.79,7.59-8,1.34-5.13.53-8.08-4.08-10.88-2.51-1.52-5.26-2.63-7.9-3.93l10.32-14.17c3-3.51,7-6.55,6.6-12.23-6,2.35-7,3.24-11.9,8.16-1.94,1.93-4.19,2.69-7.18.54a13.72,13.72,0,0,1-4-4.21c1.32-.32,2.86-.74,4.71-1.07-2.6-3.37-3.71-5.82-5.6-7a4.48,4.48,0,0,0-.69-.35c.09-1.07-.83-2.23-1.83-4.69-.7,2.18-1.17,3.64-1.57,4.9a4.33,4.33,0,0,0-1.34,1.22c-2-.74-4.59-1.26-4.88-2.37-1.57-6-6-3.88-9.49-4.59-.66,1.7-1.11,2.89-1.57,4.08-6-2.18-8.9-1.88-11.74,1.61-4.18,5.14-.87,9.68.84,13C289.57,591.1,288.59,593.71,289,596.07Z" transform="translate(0 -541.42)"/><path d="M644.67,635.16c3.16,2.34,6.39,2.74,9.62.18,1.27-1,2.34-2.27,3.65-3.2,2-1.43,4.6-2.88,3.26-5.64-.78-1.58-3.15-2.46-4.92-3.45a17.82,17.82,0,0,0-5.1-2.21c-1.95-.38-4.34-.74-6,0C638.9,623.68,638.77,630.63,644.67,635.16Z" transform="translate(0 -541.42)"/><path d="M660.43,575.8a6.9,6.9,0,0,0,1.57-10c-2.57-3.37-6.62-3.63-9.74-.29a100.53,100.53,0,0,0-6.21,8.05C650.64,577.49,657,578.27,660.43,575.8Z" transform="translate(0 -541.42)"/><path d="M418.39,558.8c3.19,2.69,9,2.52,10.95-.32s.9-8.73-2-11c-3.67-2.87-7.34-2.68-9.86.5A7.55,7.55,0,0,0,418.39,558.8Z" transform="translate(0 -541.42)"/><path d="M652.35,600.13c-1.59,0-4.38,1.19-4.48,2.08-.19,1.73.62,4.34,1.94,5.3a30.8,30.8,0,0,0,9.23,4.41c1.69.5,3.85-.57,5-.78,2.87-4.33,1-8.85-3.11-9.83A35.43,35.43,0,0,0,652.35,600.13Z" transform="translate(0 -541.42)"/><path d="M614.91,588.22a8.71,8.71,0,0,0,6.28-3.91c2.23-4,.08-7.58-3.13-11.1l-12.38,5.41C609.44,582.56,609.42,588.29,614.91,588.22Z" transform="translate(0 -541.42)"/><path d="M215.6,561c2.6,2,7.14,1.24,9.38-1.57,2-2.45,1.2-6.25-1.69-8.45a6.58,6.58,0,0,0-8.74.65C212.34,554.12,212.88,558.87,215.6,561Z" transform="translate(0 -541.42)"/><path d="M669.78,564.33a7,7,0,0,0,8.84-1.45,6,6,0,0,0-1.47-8.62,6.65,6.65,0,0,0-8.74,1.33A6.58,6.58,0,0,0,669.78,564.33Z" transform="translate(0 -541.42)"/><path d="M455.27,638.18c2.59-2.44,2.46-4.94-.38-7.65-3.05-2.92-6.82-3.1-9.38-.46-2,2.07-1.54,6.42.95,8.81C448.72,641.05,452.56,640.74,455.27,638.18Z" transform="translate(0 -541.42)"/><path d="M518.19,556l-.05-.07-.07,0,.08.12Z" transform="translate(0 -541.42)"/><path d="M529.88,557.93c1.49-2.29.2-7.12-2.31-8.64-3.09-1.88-5.76-.64-8.13,3.84-.49.93-.85,1.93-1.25,2.9A11.56,11.56,0,0,0,520,558.6C523.54,561.54,527.75,561.2,529.88,557.93Z" transform="translate(0 -541.42)"/><path d="M198.08,610.82c2.47,1.91,7.1,1.54,8.9-.72s1.25-6.08-1.12-8a6.14,6.14,0,0,0-8.69.8A5.64,5.64,0,0,0,198.08,610.82Z" transform="translate(0 -541.42)"/><path d="M552.67,621.61c3.6-1,6.05-1.13,7.6-2.36,2.13-1.68,1.47-5.53-.82-7.06s-5.11-1.82-6.37.71C552.12,614.85,552.78,617.6,552.67,621.61Z" transform="translate(0 -541.42)"/><path d="M606.22,611.71a8.61,8.61,0,0,0-.67-6.47c-.41-.73-4.64-.58-5.38.44-1.08,1.5-.58,4.13-.88,7.7C602.69,612.64,605.86,612.69,606.22,611.71Z" transform="translate(0 -541.42)"/><path d="M1820.43,604.8a6.9,6.9,0,0,0,1.57-10c-2.57-3.37-6.62-3.63-9.74-.29a100.53,100.53,0,0,0-6.21,8.05C1810.64,606.49,1817,607.27,1820.43,604.8Z" transform="translate(0 -541.42)"/><path d="M1375.81,593.51a30.8,30.8,0,0,0,9.23,4.41c1.69.5,3.85-.57,5-.78,2.87-4.33,1-8.85-3.11-9.83a35.43,35.43,0,0,0-8.53-1.18c-1.59,0-4.38,1.19-4.48,2.08C1373.68,589.94,1374.49,592.55,1375.81,593.51Z" transform="translate(0 -541.42)"/><path d="M1672.91,588.22a8.71,8.71,0,0,0,6.28-3.91c2.23-4,.08-7.58-3.13-11.1l-12.38,5.41C1667.44,582.56,1667.42,588.29,1672.91,588.22Z" transform="translate(0 -541.42)"/><path d="M1332.22,611.71a8.61,8.61,0,0,0-.67-6.47c-.41-.73-4.64-.58-5.38.44-1.08,1.5-.58,4.13-.88,7.7C1328.69,612.64,1331.86,612.69,1332.22,611.71Z" transform="translate(0 -541.42)"/><path d="M1852.59,583.61c-3-.8-4.76-.25-5,4.55a26.25,26.25,0,0,0,4.34-2.11C1852.39,585.69,1852.34,584.65,1852.59,583.61Z" transform="translate(0 -541.42)"/><path d="M1654.59,617.61c-3-.8-4.76-.25-5,4.55a26.25,26.25,0,0,0,4.34-2.11C1654.39,619.69,1654.34,618.65,1654.59,617.61Z" transform="translate(0 -541.42)"/><path d="M1835.15,618a8.58,8.58,0,0,0,6.5-.26c.75-.36.87-4.59-.11-5.4-1.42-1.17-4.08-.83-7.63-1.36C1834.44,614.45,1834.19,617.61,1835.15,618Z" transform="translate(0 -541.42)"/><path d="M1699.22,587.71a8.61,8.61,0,0,0-.67-6.47c-.41-.73-4.64-.58-5.38.44-1.08,1.5-.58,4.13-.88,7.7C1695.69,588.64,1698.86,588.69,1699.22,587.71Z" transform="translate(0 -541.42)"/><path d="M481.68,567a3.12,3.12,0,0,0-1-5.31c-1.6-.65-4.51-.44-5.57.64s-.21,3.64-.21,6.86C478.05,568.24,480.4,568.19,481.68,567Z" transform="translate(0 -541.42)"/><path d="M658.45,552.11c1-.82,2.58-1.52,2.8-2.51.32-1.56.23-4-.73-4.79s-3.79-.41-4.7.53-.94,3.32-.53,4.85C655.52,551.05,657.31,551.49,658.45,552.11Z" transform="translate(0 -541.42)"/><path d="M513.5,558.53c1.6-.21,3-1.61,4.57-2.53-.87-1.28-1.53-2.92-2.73-3.64s-3.29-.83-4.23-.15a3.54,3.54,0,0,0,2.39,6.32Z" transform="translate(0 -541.42)"/><path d="M436.73,627.68c1.4.7,3.31.39,6.47.66-1.2-3.1-1.42-5.71-2.73-6.5s-4.42-.45-5.49.63C433,624.44,434.72,626.68,436.73,627.68Z" transform="translate(0 -541.42)"/><path d="M198.79,642c-.63,1.09-.37,2.69-.55,5,2.18-.7,3.79-.83,4.71-1.7.45-.42,0-2.69-.78-3.27S199.09,641.5,198.79,642Z" transform="translate(0 -541.42)"/><path d="M632.68,585.49l4.29-.24c-.14-1.4,0-3-.57-4.1-.22-.43-2.68-.35-3.34.3S632.79,583.73,632.68,585.49Z" transform="translate(0 -541.42)"/><path d="M660.51,591.38c-.22-.32-2.52.18-3.17.92s-.7,2.38-1.18,4.37l5.6-1.38C661.39,594,661.25,592.46,660.51,591.38Z" transform="translate(0 -541.42)"/><path d="M594.22,649.17c.58-.77.53-3-.1-3.48-1-.77-2.68-.64-5.2-1.1.87,2.37,1,4,2,4.91A3.39,3.39,0,0,0,594.22,649.17Z" transform="translate(0 -541.42)"/><path d="M551.83,600.82a6,6,0,0,0-.68-3.35c-.12-.24-2.37.08-2.47.44-.27,1.08,0,2.31.18,4.17C550.31,601.5,551.77,601.26,551.83,600.82Z" transform="translate(0 -541.42)"/><path d="M567.64,561.58a25.79,25.79,0,0,0-1.71-4.35c-.18-.28-1.9-.06-2,.19a4.15,4.15,0,0,0,0,2.83C564.35,560.84,565.6,560.89,567.64,561.58Z" transform="translate(0 -541.42)"/><path d="M658.46,552.24l.07-.09-.08,0a.18.18,0,0,0-.07,0A.6.6,0,0,0,658.46,552.24Z" transform="translate(0 -541.42)"/><path d="M657.7,556.36l2.15-.08a21.37,21.37,0,0,0-.46-2.9c-.12-.44-.59-.77-.93-1.14-.31.4-.75.79-.8,1.22A18.76,18.76,0,0,0,657.7,556.36Z" transform="translate(0 -541.42)"/><path d="M385.64,627.4h0l0,0Z" transform="translate(0 -541.42)"/><path d="M387.54,624.48l-1.87,2.9c1-.64,1.94-1.3,2.9-2Z" transform="translate(0 -541.42)"/></svg>